{
  "accessors": [
    {
      "bufferView": 2,
      "componentType": 5126,
      "count": 65532,
      "max": [
        1.0149999856948853,
        1.5149999856948853,
        1.0149999856948853
      ],
      "min": [
        -1.015001654624939,
        -1.5149999856948853,
        -1.015001893043518
      ],
      "type": "VEC3"
    },
    {
      "bufferView": 2,
      "byteOffset": 786384,
      "componentType": 5126,
      "count": 65532,
      "max": [
        0.9999991655349731,
        0.9999991655349731,
        0.999997615814209
      ],
      "min": [
        -0.9999992251396179,
        -0.9999992847442627,
        -0.9999976754188538
      ],
      "type": "VEC3"
    },
    {
      "bufferView": 1,
      "componentType": 5126,
      "count": 65532,
      "max": [
        1.0,
        1.0
      ],
      "min": [
        0.0,
        0.0
      ],
      "type": "VEC2"
    },
    {
      "bufferView": 0,
      "componentType": 5125,
      "count": 104808,
      "type": "SCALAR"
    },
    {
      "bufferView": 2,
      "byteOffset": 1572768,
      "componentType": 5126,
      "count": 28119,
      "max": [
        1.0800000429153442,
        2.1113154888153076,
        1.5144742727279663
      ],
      "min": [
        -1.0800000429153442,
        -1.514552116394043,
        -1.015001893043518
      ],
      "type": "VEC3"
    },
    {
      "bufferView": 2,
      "byteOffset": 1910196,
      "componentType": 5126,
      "count": 28119,
      "max": [
        0.9999365210533142,
        0.9999361634254456,
        0.9998258948326111
      ],
      "min": [
        -0.9999365210533142,
        -0.9999364614486694,
        -0.9998255968093872
      ],
      "type": "VEC3"
    },
    {
      "bufferView": 1,
      "byteOffset": 524256,
      "componentType": 5126,
      "count": 28119,
      "max": [
        1.0,
        1.0
      ],
      "min": [
        0.0,
        0.0
      ],
      "type": "VEC2"
    },
    {
      "bufferView": 0,
      "byteOffset": 419232,
      "componentType": 5125,
      "count": 42936,
      "type": "SCALAR"
    },
    {
      "bufferView": 2,
      "byteOffset": 2247624,
      "componentType": 5126,
      "count": 18816,
      "max": [
        0.3000001907348633,
        0.30000001192092896,
        0.05000000074505806
      ],
      "min": [
        -0.30000001192092896,
        -2.250626564025879,
        -2.799999952316284
      ],
      "type": "VEC3"
    },
    {
      "bufferView": 2,
      "byteOffset": 2473416,
      "componentType": 5126,
      "count": 18816,
      "max": [
        0.9893583655357361,
        0.9893590807914734,
        0.9914107918739319
      ],
      "min": [
        -0.9893584847450256,
        -0.9893583059310913,
        -1.0
      ],
      "type": "VEC3"
    },
    {
      "bufferView": 1,
      "byteOffset": 749208,
      "componentType": 5126,
      "count": 18816,
      "max": [
        1.0,
        1.0
      ],
      "min": [
        0.0,
        -4.440892098500626e-16
      ],
      "type": "VEC2"
    },
    {
      "bufferView": 0,
      "byteOffset": 590976,
      "componentType": 5125,
      "count": 28752,
      "type": "SCALAR"
    },
    {
      "bufferView": 2,
      "byteOffset": 2699208,
      "componentType": 5126,
      "count": 192,
      "max": [
        1.0,
        1.0,
        1.0
      ],
      "min": [
        -1.0,
        -1.0,
        -1.0
      ],
      "type": "VEC3"
    },
    {
      "bufferView": 2,
      "byteOffset": 2701512,
      "componentType": 5126,
      "count": 192,
      "max": [
        0.9951847195625305,
        0.9951847195625305,
        1.0
      ],
      "min": [
        -0.9951847195625305,
        -0.9951847195625305,
        -1.0
      ],
      "type": "VEC3"
    },
    {
      "bufferView": 1,
      "byteOffset": 899736,
      "componentType": 5126,
      "count": 192,
      "max": [
        1.0,
        1.0
      ],
      "min": [
        0.0,
        0.01000000536441803
      ],
      "type": "VEC2"
    },
    {
      "bufferView": 0,
      "byteOffset": 705984,
      "componentType": 5125,
      "count": 372,
      "type": "SCALAR"
    }
  ],
  "asset": {
    "extras": {
      "author": "Drfreshdr (https://sketchfab.com/Drfreshdr)",
      "license": "CC-BY-4.0 (http://creativecommons.org/licenses/by/4.0/)",
      "source": "https://sketchfab.com/3d-models/shopping-cart-fc5e2e7f0c8a4e0eb208bfcc7aa130e0",
      "title": "Shopping Cart"
    },
    "generator": "Sketchfab-16.52.0",
    "version": "2.0"
  },
  "bufferViews": [
    {
      "buffer": 0,
      "byteLength": 707472,
      "name": "floatBufferViews",
      "target": 34963
    },
    {
      "buffer": 0,
      "byteLength": 901272,
      "byteOffset": 707472,
      "byteStride": 8,
      "name": "floatBufferViews",
      "target": 34962
    },
    {
      "buffer": 0,
      "byteLength": 2703816,
      "byteOffset": 1608744,
      "byteStride": 12,
      "name": "floatBufferViews",
      "target": 34962
    }
  ],
  "buffers": [
    {
      "byteLength": 4312560,
      "uri": "scene.bin"
    }
  ],
  "extensionsUsed": [
    "KHR_materials_specular"
  ],
  "materials": [
    {
      "doubleSided": true,
      "extensions": {
        "KHR_materials_specular": {
          "specularColorFactor": [
            1.0,
            1.0,
            1.0
          ],
          "specularFactor": 1.0
        }
      },
      "name": "Material.001",
      "pbrMetallicRoughness": {
        "baseColorFactor": [
          0.8,
          0.8,
          0.8,
          1.0
        ],
        "roughnessFactor": 0.8579073764796235
      }
    },
    {
      "doubleSided": true,
      "name": "Material.003",
      "pbrMetallicRoughness": {
        "baseColorFactor": [
          0.0190874,
          0.0190874,
          0.0190874,
          1.0
        ],
        "metallicFactor": 0.0,
        "roughnessFactor": 0.995731927608627
      }
    },
    {
      "doubleSided": true,
      "name": "Material",
      "pbrMetallicRoughness": {
        "baseColorFactor": [
          0.0984524,
          0.00473469,
          0.00684416,
          1.0
        ],
        "metallicFactor": 0.0,
        "roughnessFactor": 0.9944520070208818
      }
    }
  ],
  "meshes": [
    {
      "name": "Cube_Material.001_0",
      "primitives": [
        {
          "attributes": {
            "NORMAL": 1,
            "POSITION": 0,
            "TEXCOORD_0": 2
          },
          "indices": 3,
          "material": 0,
          "mode": 4
        }
      ]
    },
    {
      "name": "Cube_Material.001_0",
      "primitives": [
        {
          "attributes": {
            "NORMAL": 5,
            "POSITION": 4,
            "TEXCOORD_0": 6
          },
          "indices": 7,
          "material": 0,
          "mode": 4
        }
      ]
    },
    {
      "name": "Torus_Material.003_0",
      "primitives": [
        {
          "attributes": {
            "NORMAL": 9,
            "POSITION": 8,
            "TEXCOORD_0": 10
          },
          "indices": 11,
          "material": 1,
          "mode": 4
        }
      ]
    },
    {
      "name": "Cylinder_Material_0",
      "primitives": [
        {
          "attributes": {
            "NORMAL": 13,
            "POSITION": 12,
            "TEXCOORD_0": 14
          },
          "indices": 15,
          "material": 2,
          "mode": 4
        }
      ]
    }
  ],
  "nodes": [
    {
      "children": [
        1
      ],
      "matrix": [
        1.0,
        0.0,
        0.0,
        0.0,
        0.0,
        2.220446049250313e-16,
        -1.0,
        0.0,
        0.0,
        1.0,
        2.220446049250313e-16,
        0.0,
        0.0,
        0.0,
        0.0,
        1.0
      ],
      "name": "Sketchfab_model"
    },
    {
      "children": [
        2
      ],
      "matrix": [
        1.0,
        0.0,
        0.0,
        0.0,
        0.0,
        0.0,
        1.0,
        0.0,
        0.0,
        -1.0,
        0.0,
        0.0,
        0.0,
        0.0,
        0.0,
        1.0
      ],
      "name": "fc869ea5f11446b9964c39b8085b96d2.fbx"
    },
    {
      "children": [
        3,
        10
      ],
      "name": "RootNode"
    },
    {
      "children": [
        4,
        5,
        6,
        8
      ],
      "matrix": [
        1.0,
        0.0,
        0.0,
        0.0,
        0.0,
        -1.6292067939183141e-07,
        -0.9999999999999868,
        0.0,
        0.0,
        0.9999999999999868,
        -1.6292067939183141e-07,
        0.0,
        0.0,
        1.2400000095367432,
        0.0,
        1.0
      ],
      "name": "Cube"
    },
    {
      "mesh": 0,
      "name": "Cube_Material.001_0"
    },
    {
      "mesh": 1,
      "name": "Cube_Material.001_0"
    },
    {
      "children": [
        7
      ],
      "matrix": [
        6.039832057897212e-08,
        0.0,
        -0.8000000119209266,
        0.0,
        0.0,
        0.800000011920929,
        0.0,
        0.0,
        0.8000000119209266,
        0.0,
        6.039832057897212e-08,
        0.0,
        1.100000023841858,
        0.7799999713897705,
        -1.0,
        1.0
      ],
      "name": "Torus"
    },
    {
      "mesh": 2,
      "name": "Torus_Material.003_0"
    },
    {
      "children": [
        9
      ],
      "matrix": [
        5.284852994409742e-09,
        0.0,
        -0.07000000029802302,
        0.0,
        0.0,
        0.07000000029802322,
        0.0,
        0.0,
        0.8999999761581395,
        0.0,
        6.794810783882771e-08,
        0.0,
        6.107703649140136e-16,
        2.0999999046325684,
        1.5,
        1.0
      ],
      "name": "Cylinder"
    },
    {
      "mesh": 3,
      "name": "Cylinder_Material_0"
    },
    {
      "children": [
        11
      ],
      "matrix": [
        -0.6515580621406576,
        -0.4452714038411621,
        -0.6141704562835514,
        0.0,
        -0.32401352197871774,
        0.8953956406450051,
        -0.30542083145860877,
        0.0,
        0.6859207524392181,
        1.275531577304978e-07,
        -0.7276762476357193,
        0.0,
        7.358891487121582,
        4.958309173583984,
        6.925790786743164,
        1.0
      ],
      "name": "Camera"
    },
    {
      "name": "Object_11"
    }
  ],
  "scene": 0,
  "scenes": [
    {
      "name": "Sketchfab_Scene",
      "nodes": [
        0
      ]
    }
  ]
}
